<svg xmlns="http://www.w3.org/2000/svg" width="256" height="256" viewBox="0 0 100 100"><rect width="100" height="100" rx="20" fill="#4f46e5"></rect><path fill="#fff" d="M16.25 77.02L0.77 77.02L0.77 72.34L4.78 71.78L23.67 22.98L29.94 22.98L48.50 71.78L52.47 72.34L52.47 77.02L36.96 77.02L36.96 72.34L41.04 71.63L37.48 61.69L15.84 61.69L12.17 71.63L16.25 72.34L16.25 77.02ZM26.19 33.60L18.10 55.57L35.25 55.57L27.31 33.60L26.86 32.37L26.64 32.37L26.19 33.60ZM99.23 77.02L58.07 77.02L58.07 72.34L64.12 71.30L64.12 28.74L58.07 27.70L58.07 22.98L98.08 22.98L98.08 35.97L92.21 35.97L91.40 28.63L71.43 28.63L71.43 46.21L91.36 46.21L91.36 51.97L71.43 51.97L71.43 71.52L92.58 71.52L93.40 64.06L99.23 64.06L99.23 77.02Z"></path></svg>